<svg width="172" height="166" viewBox="0 0 172 166" fill="none" xmlns="http://www.w3.org/2000/svg">
<path d="M1.81078 114.535L24.3996 21.4069C27.197 10.7379 37.361 -7.39932 55.6374 5.40344C55.6374 18.2062 43.6707 96.4361 55.6374 122L80.9695 21.4069C84.4921 10.7379 95.6403 -7.39932 112.052 5.40344C112.052 28.0161 99.1526 88.1226 112.052 122L137.384 21.4069C141.528 10.7379 152.708 -7.39932 168 5.40344C159.173 0.747887 153.132 14.1326 150.283 21.4069L127.573 109.957C125.756 117.044 119.368 122 112.052 122C99.1526 88.1226 112.052 28.0161 112.052 5.40344C102.851 -1.24735 96.5624 13.3012 93.8686 21.4069L71.6866 109.491C69.8346 116.846 63.2211 122 55.6374 122C43.6707 96.4361 55.6374 18.2062 55.6374 5.40344C45.691 -1.24735 38.9565 13.3012 36.8326 21.4069L13.5529 117.383C12.8957 120.092 10.4698 122 7.68183 122C3.76902 122 0.888442 118.337 1.81078 114.535Z" fill="#4F3824"/>
<path d="M55.6374 5.40344C37.361 -7.39932 27.197 10.7379 24.3996 21.4069L1.81078 114.535C0.888442 118.337 3.76902 122 7.68183 122V122C10.4698 122 12.8957 120.092 13.5529 117.383L36.8326 21.4069C38.9565 13.3012 45.691 -1.24735 55.6374 5.40344ZM55.6374 5.40344C55.6374 18.2062 43.6707 96.4361 55.6374 122M55.6374 122L80.9695 21.4069C84.4921 10.7379 95.6403 -7.39932 112.052 5.40344M55.6374 122V122C63.2211 122 69.8346 116.846 71.6866 109.491L93.8686 21.4069C96.5624 13.3012 102.851 -1.24735 112.052 5.40344M112.052 5.40344C112.052 28.0161 99.1526 88.1226 112.052 122M112.052 122L137.384 21.4069C141.528 10.7379 152.707 -7.39932 168 5.40344M112.052 122V122C119.368 122 125.756 117.044 127.573 109.957L150.283 21.4069C153.132 14.1326 159.173 0.747887 168 5.40344M168 5.40344C168 25.8546 156.033 88.7461 168 122" stroke="#4F3824"/>
<path d="M25.98 164.722C26.2583 164.072 26.6016 163.191 27.0098 162.078C27.4365 160.964 27.8726 159.758 28.3179 158.459C28.7632 157.161 29.2085 155.834 29.6538 154.479C30.0991 153.125 30.4888 151.882 30.8228 150.75C31.1753 149.618 31.4629 148.672 31.6855 147.911C31.9082 147.132 32.0195 146.668 32.0195 146.52C32.0195 146.26 31.9453 146.13 31.7969 146.13C31.6113 146.13 31.3145 146.334 30.9062 146.742C30.5166 147.132 30.0806 147.624 29.5981 148.217C29.1157 148.792 28.624 149.405 28.123 150.054C27.6221 150.704 27.1768 151.279 26.7871 151.78C26.3975 152.912 25.9893 154.081 25.5625 155.287C25.1357 156.493 24.7183 157.68 24.3101 158.849C23.9204 160.018 23.5586 161.131 23.2246 162.189C22.8906 163.247 22.6123 164.184 22.3896 165C22.1855 165.037 21.9629 165.065 21.7217 165.083C21.2949 165.139 20.7383 165.167 20.0518 165.167C19.7363 165.167 19.4023 165.148 19.0498 165.111C18.6973 165.093 18.354 165.056 18.02 165L17.8252 164.722C17.918 164.536 18.085 164.156 18.3262 163.581C18.5488 163.005 18.8179 162.31 19.1333 161.493C19.4302 160.677 19.7642 159.768 20.1353 158.766C20.4878 157.764 20.8403 156.743 21.1929 155.704C21.5454 154.665 21.8887 153.645 22.2227 152.643C22.5566 151.641 22.8442 150.722 23.0854 149.887C23.3452 149.052 23.5493 148.347 23.6978 147.772C23.8647 147.178 23.9482 146.779 23.9482 146.575C23.9482 146.371 23.9204 146.213 23.8647 146.102C23.8276 145.991 23.7905 145.889 23.7534 145.796C23.6978 145.722 23.6421 145.647 23.5864 145.573V145.156C24.0132 144.896 24.5142 144.664 25.0894 144.46C25.6646 144.256 26.2212 144.089 26.7593 143.959C27.3716 143.811 28.0117 143.681 28.6797 143.569L28.791 143.736C28.791 143.959 28.7446 144.312 28.6519 144.794C28.5591 145.276 28.4478 145.796 28.3179 146.353C28.2065 146.909 28.0767 147.466 27.9282 148.022C27.7983 148.561 27.687 148.997 27.5942 149.331C28.1323 148.607 28.6797 147.893 29.2363 147.188C29.793 146.464 30.3311 145.824 30.8506 145.267C31.3701 144.692 31.8433 144.228 32.27 143.875C32.7153 143.523 33.0957 143.347 33.4111 143.347C33.541 143.347 33.7544 143.402 34.0513 143.514C34.3667 143.625 34.6821 143.792 34.9976 144.015C35.313 144.237 35.5913 144.525 35.8325 144.877C36.0923 145.23 36.2314 145.647 36.25 146.13C36.25 146.297 36.1572 146.677 35.9717 147.271C35.7861 147.865 35.5728 148.533 35.3315 149.275C35.9067 148.551 36.4819 147.837 37.0571 147.132C37.6509 146.427 38.2075 145.796 38.7271 145.239C39.2651 144.683 39.7568 144.228 40.2021 143.875C40.666 143.523 41.0557 143.347 41.3711 143.347C41.501 143.347 41.7329 143.412 42.0669 143.542C42.4009 143.653 42.7441 143.838 43.0967 144.098C43.4492 144.339 43.7554 144.655 44.0151 145.044C44.2935 145.416 44.4419 145.87 44.4604 146.408C44.4604 146.594 44.3306 147.021 44.0708 147.688C43.811 148.356 43.4863 149.154 43.0967 150.082C42.7256 151.01 42.3174 152.021 41.8721 153.116C41.4268 154.21 41.0093 155.287 40.6196 156.344C40.2485 157.402 39.9331 158.385 39.6733 159.294C39.4136 160.204 39.2837 160.946 39.2837 161.521C39.2837 161.744 39.3022 161.911 39.3394 162.022C39.395 162.115 39.5063 162.161 39.6733 162.161C39.8774 162.143 40.1836 162.041 40.5918 161.855C41 161.651 41.4731 161.354 42.0112 160.964C42.5493 160.575 43.1245 160.102 43.7368 159.545C44.3677 158.97 44.9893 158.302 45.6016 157.541L46.2139 158.098C45.4346 159.081 44.5625 160.018 43.5977 160.909C42.6328 161.781 41.6772 162.551 40.731 163.219C39.7847 163.887 38.894 164.416 38.0591 164.805C37.2241 165.195 36.5469 165.39 36.0273 165.39C35.9346 165.39 35.814 165.353 35.6655 165.278C35.5171 165.204 35.3687 165.083 35.2202 164.917C35.0718 164.75 34.9419 164.518 34.8306 164.221C34.7192 163.924 34.6636 163.553 34.6636 163.107C34.6636 162.885 34.6914 162.606 34.7471 162.272C34.8027 161.92 34.8677 161.567 34.9419 161.215C35.0161 160.844 35.0903 160.51 35.1646 160.213C35.2388 159.897 35.2944 159.666 35.3315 159.517C35.4985 158.868 35.7305 158.144 36.0273 157.346C36.3428 156.53 36.6768 155.686 37.0293 154.813C37.3818 153.941 37.7437 153.079 38.1147 152.225C38.4858 151.353 38.8198 150.546 39.1167 149.804C39.4136 149.043 39.6548 148.384 39.8403 147.828C40.0259 147.252 40.1187 146.816 40.1187 146.52C40.1187 146.26 40.0444 146.13 39.896 146.13C39.729 146.13 39.4414 146.315 39.0332 146.687C38.625 147.058 38.1704 147.512 37.6694 148.05C37.187 148.588 36.6768 149.173 36.1387 149.804C35.6191 150.416 35.146 150.982 34.7192 151.501C34.1997 153.171 33.7358 154.656 33.3276 155.955C32.9194 157.253 32.5483 158.432 32.2144 159.489C31.8804 160.547 31.5742 161.521 31.2959 162.412C31.0176 163.284 30.7671 164.146 30.5444 165C30.3403 165.037 30.1177 165.065 29.8765 165.083C29.4497 165.139 28.8931 165.167 28.2065 165.167C27.8911 165.167 27.5571 165.148 27.2046 165.111C26.8521 165.093 26.5088 165.056 26.1748 165L25.98 164.722ZM62.3843 157.652C61.5679 158.636 60.6865 159.591 59.7402 160.519C58.8125 161.428 57.894 162.235 56.9849 162.94C56.0942 163.646 55.2593 164.211 54.48 164.638C53.7007 165.065 53.0513 165.278 52.5317 165.278C52.4204 165.278 52.2812 165.223 52.1143 165.111C51.9473 165.019 51.8359 164.926 51.7803 164.833C51.5762 164.462 51.4277 163.998 51.335 163.441C51.2607 162.866 51.2236 162.337 51.2236 161.855C51.2236 161.707 51.2422 161.502 51.2793 161.243C51.335 160.964 51.3906 160.677 51.4463 160.38C50.834 161.029 50.1938 161.66 49.5259 162.272C48.8765 162.866 48.2456 163.395 47.6333 163.859C47.0396 164.323 46.5107 164.694 46.0469 164.972C45.5645 165.25 45.2119 165.39 44.9893 165.39C44.8408 165.39 44.7202 165.334 44.6274 165.223C44.5161 165.111 44.4233 164.963 44.3491 164.777C44.2563 164.592 44.1914 164.397 44.1543 164.193C44.0986 163.989 44.0615 163.785 44.043 163.581C43.9873 162.931 44.0151 162.226 44.1265 161.465C44.2192 160.686 44.3584 159.897 44.5439 159.1C44.7295 158.302 44.9429 157.522 45.1841 156.762C45.4067 155.982 45.6294 155.277 45.8521 154.646C46.0747 153.997 46.2695 153.45 46.4365 153.004C46.6035 152.559 46.7148 152.262 46.7705 152.114C46.8447 151.891 46.9653 151.631 47.1323 151.334C47.3179 151.019 47.522 150.713 47.7446 150.416C47.9673 150.101 48.1899 149.804 48.4126 149.525C48.6538 149.229 48.8857 148.969 49.1084 148.746C49.5166 148.356 50.0454 147.939 50.6948 147.494C51.3442 147.048 52.0493 146.612 52.8101 146.186C53.5894 145.759 54.3872 145.341 55.2036 144.933C56.02 144.525 56.79 144.172 57.5137 143.875C58.2559 143.579 58.9146 143.337 59.4897 143.152C60.0649 142.966 60.501 142.874 60.7979 142.874C61.0576 142.874 61.2803 142.883 61.4658 142.901C61.6699 142.92 61.8276 142.948 61.939 142.985L61.9946 143.124C61.7905 143.384 61.54 143.829 61.2432 144.46C60.9463 145.091 60.6216 145.824 60.269 146.659C59.9165 147.494 59.5547 148.412 59.1836 149.414C58.8125 150.416 58.4414 151.427 58.0703 152.448C57.7178 153.468 57.3838 154.47 57.0684 155.454C56.7529 156.418 56.4653 157.3 56.2056 158.098C55.9644 158.896 55.7695 159.573 55.6211 160.129C55.4912 160.667 55.4263 161.02 55.4263 161.187C55.4263 161.521 55.5654 161.688 55.8438 161.688C56.0293 161.669 56.3262 161.567 56.7344 161.382C57.1426 161.178 57.6157 160.881 58.1538 160.491C58.6919 160.102 59.2671 159.628 59.8794 159.072C60.5103 158.497 61.1411 157.829 61.772 157.068L62.3843 157.652ZM48.7188 161.354C48.8672 161.354 49.062 161.271 49.3032 161.104C49.5444 160.937 49.8042 160.723 50.0825 160.463C50.3608 160.204 50.6577 159.907 50.9731 159.573C51.2886 159.22 51.5947 158.868 51.8916 158.515C52.0771 157.866 52.2812 157.151 52.5039 156.372C52.7451 155.593 52.9956 154.795 53.2554 153.979C53.5151 153.162 53.7842 152.346 54.0625 151.529C54.3408 150.713 54.6099 149.943 54.8696 149.219C55.1479 148.477 55.4077 147.809 55.6489 147.215C55.8901 146.603 56.1035 146.093 56.2891 145.685C55.9922 145.777 55.6025 145.917 55.1201 146.102C54.6377 146.269 54.0996 146.584 53.5059 147.048C53.0049 147.438 52.5317 148.022 52.0864 148.802C51.6411 149.581 51.2329 150.462 50.8618 151.446C50.4907 152.411 50.1475 153.413 49.832 154.452C49.5352 155.491 49.2754 156.456 49.0527 157.346C48.8486 158.237 48.6909 158.998 48.5796 159.628C48.4683 160.259 48.4126 160.64 48.4126 160.77C48.4126 160.918 48.4219 161.057 48.4404 161.187C48.4775 161.298 48.5703 161.354 48.7188 161.354ZM63.4697 165C63.2656 165.037 63.043 165.065 62.8018 165.083C62.375 165.139 61.8184 165.167 61.1318 165.167C60.8164 165.167 60.4824 165.148 60.1299 165.111C59.7773 165.093 59.4341 165.056 59.1001 165L58.9053 164.722C58.998 164.536 59.165 164.156 59.4062 163.581C59.6289 163.005 59.8979 162.31 60.2134 161.493C60.5103 160.677 60.8442 159.768 61.2153 158.766C61.5679 157.764 61.9204 156.743 62.2729 155.704C62.6255 154.665 62.9688 153.645 63.3027 152.643C63.6367 151.641 63.9243 150.722 64.1655 149.887C64.4253 149.052 64.6294 148.347 64.7778 147.772C64.9448 147.178 65.0283 146.779 65.0283 146.575C65.0283 146.371 65.0005 146.213 64.9448 146.102C64.9077 145.991 64.8706 145.889 64.8335 145.796C64.7778 145.722 64.7222 145.647 64.6665 145.573V145.156C65.0933 144.896 65.5942 144.664 66.1694 144.46C66.7446 144.256 67.3013 144.089 67.8394 143.959C68.4517 143.811 69.0918 143.681 69.7598 143.569L69.8711 143.736C69.8711 143.959 69.8247 144.321 69.7319 144.822C69.6392 145.323 69.5278 145.861 69.3979 146.436C69.2681 147.011 69.1289 147.577 68.9805 148.134C68.8506 148.672 68.7485 149.108 68.6743 149.442C69.2495 148.718 69.834 147.995 70.4277 147.271C71.0215 146.529 71.5874 145.87 72.1255 145.295C72.6821 144.72 73.1924 144.256 73.6562 143.903C74.1201 143.532 74.5098 143.347 74.8252 143.347C74.9551 143.347 75.1777 143.412 75.4932 143.542C75.8271 143.653 76.1704 143.838 76.5229 144.098C76.8755 144.339 77.1816 144.655 77.4414 145.044C77.7197 145.416 77.8682 145.87 77.8867 146.408C77.8867 146.594 77.7568 147.021 77.4971 147.688C77.2373 148.356 76.9126 149.154 76.5229 150.082C76.1519 151.01 75.7437 152.021 75.2983 153.116C74.853 154.21 74.4355 155.287 74.0459 156.344C73.6748 157.402 73.3594 158.385 73.0996 159.294C72.8398 160.204 72.71 160.946 72.71 161.521C72.71 161.744 72.7285 161.911 72.7656 162.022C72.8213 162.115 72.9326 162.161 73.0996 162.161C73.3037 162.143 73.6099 162.041 74.0181 161.855C74.4263 161.651 74.8994 161.354 75.4375 160.964C75.9756 160.575 76.5508 160.102 77.1631 159.545C77.7939 158.97 78.4155 158.302 79.0278 157.541L79.668 158.098C78.8887 159.081 78.0073 160.018 77.0239 160.909C76.0591 161.781 75.1035 162.551 74.1572 163.219C73.2109 163.887 72.3203 164.416 71.4854 164.805C70.6504 165.195 69.9731 165.39 69.4536 165.39C69.3608 165.39 69.2402 165.353 69.0918 165.278C68.9434 165.204 68.7949 165.083 68.6465 164.917C68.498 164.75 68.3682 164.518 68.2568 164.221C68.1455 163.924 68.0898 163.553 68.0898 163.107C68.0898 162.885 68.1177 162.606 68.1733 162.272C68.229 161.92 68.2939 161.567 68.3682 161.215C68.4424 160.844 68.5166 160.51 68.5908 160.213C68.6836 159.897 68.7485 159.666 68.7856 159.517C68.9526 158.868 69.1846 158.144 69.4814 157.346C69.7969 156.53 70.1309 155.686 70.4834 154.813C70.8359 153.941 71.1978 153.079 71.5688 152.225C71.9399 151.353 72.2739 150.546 72.5708 149.804C72.8677 149.043 73.1089 148.384 73.2944 147.828C73.48 147.252 73.5728 146.816 73.5728 146.52C73.5728 146.26 73.4985 146.13 73.3501 146.13C73.1646 146.13 72.8398 146.334 72.376 146.742C71.9307 147.15 71.4297 147.661 70.873 148.273C70.335 148.867 69.7876 149.498 69.231 150.166C68.6743 150.815 68.2012 151.39 67.8115 151.891C67.4219 153.023 67.0137 154.192 66.5869 155.398C66.1602 156.585 65.752 157.764 65.3623 158.933C64.9727 160.083 64.6108 161.178 64.2769 162.217C63.9614 163.256 63.6924 164.184 63.4697 165ZM83.0078 163.163C83.9912 163.163 85.0117 162.681 86.0693 161.716C87.127 160.732 88.1567 159.165 89.1587 157.012L89.9658 157.541C89.4648 158.71 88.8804 159.777 88.2124 160.742C87.563 161.707 86.8579 162.532 86.0972 163.219C85.3364 163.905 84.52 164.443 83.6479 164.833C82.7944 165.204 81.9224 165.39 81.0317 165.39C80.6235 165.39 80.2153 165.25 79.8071 164.972C79.3989 164.694 79.0278 164.341 78.6938 163.915C78.3599 163.488 78.0908 163.033 77.8867 162.551C77.6641 162.05 77.5527 161.577 77.5527 161.131C77.5527 160.575 77.6177 159.944 77.7476 159.239C77.8774 158.534 78.0444 157.801 78.2485 157.04C78.4526 156.279 78.6753 155.528 78.9165 154.786C79.1577 154.043 79.3896 153.366 79.6123 152.754C79.835 152.123 80.0298 151.585 80.1968 151.14C80.3638 150.694 80.4844 150.397 80.5586 150.249C80.9297 149.358 81.4771 148.496 82.2007 147.661C82.9243 146.826 83.7314 146.083 84.6221 145.434C85.5312 144.785 86.4683 144.265 87.4331 143.875C88.4165 143.486 89.3535 143.291 90.2441 143.291C90.541 143.291 90.8286 143.384 91.1069 143.569C91.3853 143.736 91.6357 143.978 91.8584 144.293C92.0811 144.59 92.2573 144.952 92.3872 145.378C92.5171 145.787 92.582 146.232 92.582 146.714C92.582 147.438 92.4707 148.05 92.248 148.551C92.0439 149.052 91.7842 149.479 91.4688 149.832C91.1533 150.166 90.8008 150.435 90.4111 150.639C90.04 150.824 89.6782 150.973 89.3257 151.084C88.9917 151.177 88.6948 151.242 88.4351 151.279C88.1938 151.297 88.0361 151.307 87.9619 151.307C88.166 150.917 88.333 150.5 88.4629 150.054C88.5928 149.609 88.6948 149.182 88.769 148.774C88.8618 148.347 88.9175 147.958 88.936 147.605C88.9731 147.252 88.9917 146.956 88.9917 146.714C88.9917 146.51 88.9731 146.306 88.936 146.102C88.9175 145.879 88.8804 145.675 88.8247 145.49C88.769 145.304 88.6855 145.156 88.5742 145.044C88.4814 144.933 88.3608 144.877 88.2124 144.877C87.897 144.877 87.563 145.091 87.2104 145.518C86.8579 145.926 86.5054 146.482 86.1528 147.188C85.8003 147.893 85.4478 148.7 85.0952 149.609C84.7427 150.518 84.4087 151.464 84.0933 152.448C83.7778 153.431 83.481 154.415 83.2026 155.398C82.9429 156.363 82.7109 157.263 82.5068 158.098C82.3027 158.914 82.145 159.628 82.0337 160.241C81.9224 160.853 81.8667 161.28 81.8667 161.521C81.8667 162.059 81.9688 162.467 82.1729 162.746C82.3955 163.024 82.6738 163.163 83.0078 163.163ZM109.532 157.652C108.715 158.636 107.834 159.591 106.888 160.519C105.96 161.428 105.042 162.235 104.132 162.94C103.242 163.646 102.407 164.211 101.627 164.638C100.848 165.065 100.199 165.278 99.6792 165.278C99.5679 165.278 99.4287 165.223 99.2617 165.111C99.0947 165.019 98.9834 164.926 98.9277 164.833C98.7236 164.462 98.5752 163.998 98.4824 163.441C98.4082 162.866 98.3711 162.337 98.3711 161.855C98.3711 161.707 98.3896 161.502 98.4268 161.243C98.4824 160.964 98.5381 160.677 98.5938 160.38C97.9814 161.029 97.3413 161.66 96.6733 162.272C96.0239 162.866 95.3931 163.395 94.7808 163.859C94.187 164.323 93.6582 164.694 93.1943 164.972C92.7119 165.25 92.3594 165.39 92.1367 165.39C91.9883 165.39 91.8677 165.334 91.7749 165.223C91.6636 165.111 91.5708 164.963 91.4966 164.777C91.4038 164.592 91.3389 164.397 91.3018 164.193C91.2461 163.989 91.209 163.785 91.1904 163.581C91.1348 162.931 91.1626 162.226 91.2739 161.465C91.3667 160.686 91.5059 159.897 91.6914 159.1C91.877 158.302 92.0903 157.522 92.3315 156.762C92.5542 155.982 92.7769 155.277 92.9995 154.646C93.2222 153.997 93.417 153.45 93.584 153.004C93.751 152.559 93.8623 152.262 93.918 152.114C93.9922 151.891 94.1128 151.631 94.2798 151.334C94.4653 151.019 94.6694 150.713 94.8921 150.416C95.1147 150.101 95.3374 149.804 95.5601 149.525C95.8013 149.229 96.0332 148.969 96.2559 148.746C96.6641 148.356 97.1929 147.939 97.8423 147.494C98.4917 147.048 99.1968 146.612 99.9575 146.186C100.737 145.759 101.535 145.341 102.351 144.933C103.167 144.525 103.938 144.172 104.661 143.875C105.403 143.579 106.062 143.337 106.637 143.152C107.212 142.966 107.648 142.874 107.945 142.874C108.205 142.874 108.428 142.883 108.613 142.901C108.817 142.92 108.975 142.948 109.086 142.985L109.142 143.124C108.938 143.384 108.688 143.829 108.391 144.46C108.094 145.091 107.769 145.824 107.417 146.659C107.064 147.494 106.702 148.412 106.331 149.414C105.96 150.416 105.589 151.427 105.218 152.448C104.865 153.468 104.531 154.47 104.216 155.454C103.9 156.418 103.613 157.3 103.353 158.098C103.112 158.896 102.917 159.573 102.769 160.129C102.639 160.667 102.574 161.02 102.574 161.187C102.574 161.521 102.713 161.688 102.991 161.688C103.177 161.669 103.474 161.567 103.882 161.382C104.29 161.178 104.763 160.881 105.301 160.491C105.839 160.102 106.415 159.628 107.027 159.072C107.658 158.497 108.289 157.829 108.919 157.068L109.532 157.652ZM95.8662 161.354C96.0146 161.354 96.2095 161.271 96.4507 161.104C96.6919 160.937 96.9517 160.723 97.23 160.463C97.5083 160.204 97.8052 159.907 98.1206 159.573C98.436 159.22 98.7422 158.868 99.0391 158.515C99.2246 157.866 99.4287 157.151 99.6514 156.372C99.8926 155.593 100.143 154.795 100.403 153.979C100.663 153.162 100.932 152.346 101.21 151.529C101.488 150.713 101.757 149.943 102.017 149.219C102.295 148.477 102.555 147.809 102.796 147.215C103.038 146.603 103.251 146.093 103.437 145.685C103.14 145.777 102.75 145.917 102.268 146.102C101.785 146.269 101.247 146.584 100.653 147.048C100.152 147.438 99.6792 148.022 99.2339 148.802C98.7886 149.581 98.3804 150.462 98.0093 151.446C97.6382 152.411 97.2949 153.413 96.9795 154.452C96.6826 155.491 96.4229 156.456 96.2002 157.346C95.9961 158.237 95.8384 158.998 95.7271 159.628C95.6157 160.259 95.5601 160.64 95.5601 160.77C95.5601 160.918 95.5693 161.057 95.5879 161.187C95.625 161.298 95.7178 161.354 95.8662 161.354ZM120.665 134.858C120.201 136.231 119.653 137.799 119.022 139.562C118.392 141.306 117.742 143.105 117.074 144.961C116.425 146.798 115.775 148.625 115.126 150.444C114.477 152.262 113.901 153.923 113.4 155.426C112.899 156.91 112.491 158.181 112.176 159.239C111.86 160.296 111.703 160.983 111.703 161.298C111.703 161.632 111.842 161.799 112.12 161.799C112.306 161.781 112.603 161.679 113.011 161.493C113.419 161.289 113.892 160.992 114.43 160.603C114.968 160.213 115.543 159.74 116.156 159.183C116.787 158.608 117.417 157.94 118.048 157.179L118.661 157.764C117.844 158.747 116.963 159.703 116.017 160.63C115.089 161.54 114.17 162.347 113.261 163.052C112.371 163.757 111.536 164.323 110.756 164.75C109.977 165.176 109.328 165.39 108.808 165.39C108.548 165.39 108.335 165.269 108.168 165.028C108.001 164.805 107.871 164.527 107.778 164.193C107.667 163.84 107.593 163.469 107.556 163.08C107.519 162.671 107.5 162.3 107.5 161.966C107.5 161.892 107.509 161.781 107.528 161.632C107.528 161.465 107.537 161.289 107.556 161.104C107.574 160.899 107.602 160.705 107.639 160.519C107.658 160.315 107.686 160.139 107.723 159.99C108.075 158.747 108.493 157.393 108.975 155.927C109.439 154.461 109.94 152.949 110.478 151.39C111.016 149.832 111.573 148.254 112.148 146.659C112.723 145.063 113.28 143.523 113.818 142.039C114.375 140.536 114.894 139.125 115.376 137.808C115.859 136.472 116.286 135.294 116.657 134.273C117.028 133.234 117.315 132.39 117.52 131.741C117.742 131.073 117.854 130.665 117.854 130.516C117.854 130.108 117.742 129.83 117.52 129.681C117.315 129.514 117.056 129.44 116.74 129.458C116.425 129.477 116.082 129.551 115.71 129.681C115.339 129.792 114.996 129.922 114.681 130.071L114.319 129.319C116.23 128.392 117.761 127.742 118.911 127.371C120.08 127 120.887 126.814 121.333 126.814C121.462 126.814 121.611 126.87 121.778 126.981C121.963 127.074 122.13 127.213 122.279 127.399C122.427 127.584 122.557 127.798 122.668 128.039C122.78 128.262 122.835 128.494 122.835 128.735C122.835 128.883 122.622 129.505 122.195 130.6C121.769 131.676 121.258 133.095 120.665 134.858ZM134.915 157.652C134.098 158.636 133.217 159.591 132.271 160.519C131.343 161.428 130.424 162.235 129.515 162.94C128.625 163.646 127.79 164.211 127.01 164.638C126.231 165.065 125.582 165.278 125.062 165.278C124.951 165.278 124.812 165.223 124.645 165.111C124.478 165.019 124.366 164.926 124.311 164.833C124.106 164.462 123.958 163.998 123.865 163.441C123.791 162.866 123.754 162.337 123.754 161.855C123.754 161.707 123.772 161.502 123.81 161.243C123.865 160.964 123.921 160.677 123.977 160.38C123.364 161.029 122.724 161.66 122.056 162.272C121.407 162.866 120.776 163.395 120.164 163.859C119.57 164.323 119.041 164.694 118.577 164.972C118.095 165.25 117.742 165.39 117.52 165.39C117.371 165.39 117.25 165.334 117.158 165.223C117.046 165.111 116.954 164.963 116.879 164.777C116.787 164.592 116.722 164.397 116.685 164.193C116.629 163.989 116.592 163.785 116.573 163.581C116.518 162.931 116.545 162.226 116.657 161.465C116.75 160.686 116.889 159.897 117.074 159.1C117.26 158.302 117.473 157.522 117.714 156.762C117.937 155.982 118.16 155.277 118.382 154.646C118.605 153.997 118.8 153.45 118.967 153.004C119.134 152.559 119.245 152.262 119.301 152.114C119.375 151.891 119.496 151.631 119.663 151.334C119.848 151.019 120.052 150.713 120.275 150.416C120.498 150.101 120.72 149.804 120.943 149.525C121.184 149.229 121.416 148.969 121.639 148.746C122.047 148.356 122.576 147.939 123.225 147.494C123.875 147.048 124.58 146.612 125.34 146.186C126.12 145.759 126.917 145.341 127.734 144.933C128.55 144.525 129.32 144.172 130.044 143.875C130.786 143.579 131.445 143.337 132.02 143.152C132.595 142.966 133.031 142.874 133.328 142.874C133.588 142.874 133.811 142.883 133.996 142.901C134.2 142.92 134.358 142.948 134.469 142.985L134.525 143.124C134.321 143.384 134.07 143.829 133.773 144.46C133.477 145.091 133.152 145.824 132.799 146.659C132.447 147.494 132.085 148.412 131.714 149.414C131.343 150.416 130.972 151.427 130.601 152.448C130.248 153.468 129.914 154.47 129.599 155.454C129.283 156.418 128.996 157.3 128.736 158.098C128.495 158.896 128.3 159.573 128.151 160.129C128.021 160.667 127.957 161.02 127.957 161.187C127.957 161.521 128.096 161.688 128.374 161.688C128.56 161.669 128.856 161.567 129.265 161.382C129.673 161.178 130.146 160.881 130.684 160.491C131.222 160.102 131.797 159.628 132.41 159.072C133.041 158.497 133.671 157.829 134.302 157.068L134.915 157.652ZM121.249 161.354C121.397 161.354 121.592 161.271 121.833 161.104C122.075 160.937 122.334 160.723 122.613 160.463C122.891 160.204 123.188 159.907 123.503 159.573C123.819 159.22 124.125 158.868 124.422 158.515C124.607 157.866 124.812 157.151 125.034 156.372C125.275 155.593 125.526 154.795 125.786 153.979C126.045 153.162 126.314 152.346 126.593 151.529C126.871 150.713 127.14 149.943 127.4 149.219C127.678 148.477 127.938 147.809 128.179 147.215C128.42 146.603 128.634 146.093 128.819 145.685C128.522 145.777 128.133 145.917 127.65 146.102C127.168 146.269 126.63 146.584 126.036 147.048C125.535 147.438 125.062 148.022 124.617 148.802C124.171 149.581 123.763 150.462 123.392 151.446C123.021 152.411 122.678 153.413 122.362 154.452C122.065 155.491 121.806 156.456 121.583 157.346C121.379 158.237 121.221 158.998 121.11 159.628C120.999 160.259 120.943 160.64 120.943 160.77C120.943 160.918 120.952 161.057 120.971 161.187C121.008 161.298 121.101 161.354 121.249 161.354Z" fill="#4F3824"/>
<path d="M156.091 126.427C148.791 124.62 138.402 133.176 138.776 140.687C146.075 142.494 156.465 133.938 156.091 126.427Z" fill="#69B568" stroke="#69B568"/>
<path d="M157.931 153.351C156.908 145.965 145.311 141.637 138.603 146.138C139.626 153.523 151.223 157.851 157.931 153.351Z" fill="#69B568" stroke="#69B568"/>
<path d="M129.954 119.38C137.007 121.799 139.031 134.011 133.328 139.733C126.275 137.313 124.251 125.101 129.954 119.38Z" fill="#69B568" stroke="#69B568"/>
</svg>
