<svg width="186" height="177" viewBox="0 0 186 177" fill="none" xmlns="http://www.w3.org/2000/svg">
<path d="M38.7451 168.05C38.04 169.145 37.4092 169.915 36.8525 170.36C36.2959 170.805 35.7578 171.028 35.2383 171.028C34.3848 171.028 33.958 170.62 33.958 169.803C33.958 169.377 34.0601 168.848 34.2642 168.217C34.4868 167.586 34.7837 166.825 35.1548 165.935L40.0811 154.384C40.1367 154.255 40.1646 154.152 40.1646 154.078C40.1646 153.911 40.1089 153.8 39.9976 153.744C39.8862 153.67 39.7842 153.633 39.6914 153.633C39.4873 153.633 39.3018 153.707 39.1348 153.856C38.9678 154.004 38.8101 154.19 38.6616 154.412L29.6719 168.05C28.9482 169.126 28.3081 169.896 27.7515 170.36C27.2134 170.805 26.6846 171.028 26.165 171.028C25.3115 171.028 24.8848 170.62 24.8848 169.803C24.8848 169.377 24.9961 168.848 25.2188 168.217C25.4229 167.586 25.7104 166.825 26.0815 165.935L30.7017 155.052C30.7573 154.922 30.7852 154.82 30.7852 154.746C30.7852 154.635 30.748 154.561 30.6738 154.524C30.6182 154.468 30.5439 154.44 30.4512 154.44C30.2656 154.44 30.0986 154.542 29.9502 154.746L24.4395 161.565L23.7437 161.008L30.0059 153.271C30.4883 152.677 30.9893 152.158 31.5088 151.713C32.0469 151.249 32.6035 151.017 33.1787 151.017C33.7168 151.017 34.1064 151.165 34.3477 151.462C34.5889 151.74 34.7095 152.056 34.7095 152.408C34.7095 152.761 34.6445 153.16 34.5146 153.605C34.3848 154.05 34.2178 154.514 34.0137 154.997L30.145 164.098C30.0337 164.358 29.978 164.562 29.978 164.71C29.978 164.896 30.0522 164.988 30.2007 164.988C30.4048 164.988 30.6274 164.803 30.8687 164.432L36.9639 155.08C37.4648 154.301 37.9102 153.651 38.2998 153.132C38.708 152.612 39.1069 152.195 39.4966 151.88C39.8862 151.564 40.2852 151.341 40.6934 151.212C41.1016 151.082 41.5747 151.017 42.1128 151.017C42.6509 151.017 43.0591 151.165 43.3374 151.462C43.6343 151.74 43.7827 152.056 43.7827 152.408C43.7827 152.761 43.7178 153.16 43.5879 153.605C43.458 154.05 43.291 154.514 43.0869 154.997L39.2183 164.098C39.1069 164.358 39.0513 164.562 39.0513 164.71C39.0513 164.896 39.1255 164.988 39.2739 164.988C39.478 164.988 39.7007 164.803 39.9419 164.432L45.3135 155.776C45.8887 154.885 46.4082 154.134 46.8721 153.522C47.3545 152.891 47.7998 152.38 48.208 151.991C48.6348 151.601 49.043 151.323 49.4326 151.156C49.8223 150.97 50.2212 150.878 50.6294 150.878C51.3345 150.878 51.8726 151.017 52.2437 151.295C52.6147 151.573 52.8003 151.982 52.8003 152.52C52.8003 152.835 52.7539 153.169 52.6611 153.522C52.5684 153.856 52.4756 154.152 52.3828 154.412L47.54 166.269C47.4658 166.454 47.4009 166.64 47.3452 166.825C47.2896 166.992 47.2617 167.141 47.2617 167.271C47.2617 167.493 47.3081 167.642 47.4009 167.716C47.5122 167.79 47.6514 167.827 47.8184 167.827C48.0781 167.827 48.3936 167.697 48.7646 167.438C49.1357 167.178 49.5254 166.797 49.9336 166.296L55.0269 160.006L55.7227 160.563L49.5718 168.161C49.1265 168.718 48.709 169.182 48.3193 169.553C47.9297 169.924 47.5586 170.221 47.2061 170.443C46.8721 170.648 46.5288 170.796 46.1763 170.889C45.8423 170.982 45.499 171.028 45.1465 171.028C44.5898 171.028 44.126 170.87 43.7549 170.555C43.3838 170.221 43.1982 169.803 43.1982 169.302C43.1982 168.838 43.3096 168.291 43.5322 167.66C43.7549 167.029 44.061 166.259 44.4507 165.35L48.9595 154.691C49.0151 154.561 49.043 154.421 49.043 154.273C49.043 154.106 48.9873 153.976 48.876 153.883C48.7646 153.772 48.6348 153.716 48.4863 153.716C48.3379 153.716 48.1709 153.772 47.9854 153.883C47.7998 153.995 47.6328 154.171 47.4844 154.412L38.7451 168.05ZM67.0781 166.269C67.0039 166.436 66.939 166.612 66.8833 166.797C66.8276 166.983 66.7998 167.141 66.7998 167.271C66.7998 167.493 66.8462 167.642 66.939 167.716C67.0503 167.79 67.1895 167.827 67.3564 167.827C67.6162 167.827 67.9316 167.697 68.3027 167.438C68.6738 167.178 69.0635 166.797 69.4717 166.296L74.5649 160.006L75.2607 160.563L69.1099 168.161C68.6646 168.718 68.2471 169.182 67.8574 169.553C67.4678 169.924 67.0967 170.221 66.7441 170.443C66.4102 170.648 66.0669 170.796 65.7144 170.889C65.3804 170.982 65.0371 171.028 64.6846 171.028C64.1279 171.028 63.6641 170.87 63.293 170.555C62.9219 170.221 62.7363 169.803 62.7363 169.302C62.7363 168.746 62.8384 168.171 63.0425 167.577C63.2651 166.983 63.5806 166.241 63.9888 165.35C64.1372 165.035 64.3135 164.627 64.5176 164.126C64.7402 163.606 64.9722 163.068 65.2134 162.511C65.4546 161.936 65.6958 161.361 65.937 160.786C66.1782 160.211 66.3916 159.691 66.5771 159.227C66.7627 158.745 66.9111 158.346 67.0225 158.03C67.1523 157.715 67.2173 157.529 67.2173 157.474C67.2173 157.288 67.1523 157.195 67.0225 157.195C66.8555 157.195 66.6792 157.335 66.4937 157.613C66.3823 157.761 66.1597 158.077 65.8257 158.559C65.4917 159.042 65.0835 159.617 64.6011 160.285C64.1187 160.953 63.5991 161.676 63.0425 162.456C62.4858 163.235 61.9292 163.996 61.3726 164.738C60.8159 165.48 60.2871 166.157 59.7861 166.77C59.2852 167.382 58.8584 167.864 58.5059 168.217C57.6152 169.108 56.8267 169.813 56.1401 170.332C55.4536 170.833 54.7764 171.084 54.1084 171.084C53.8857 171.084 53.6445 171.037 53.3848 170.944C53.1064 170.852 52.856 170.694 52.6333 170.471C52.3921 170.23 52.1973 169.905 52.0488 169.497C51.9004 169.07 51.8262 168.532 51.8262 167.883C51.8262 166.918 52.0488 165.851 52.4941 164.682C52.9209 163.513 53.5146 162.326 54.2754 161.12C55.0361 159.895 55.936 158.698 56.9751 157.529C58.0142 156.36 59.1367 155.312 60.3428 154.384C61.5674 153.438 62.8477 152.65 64.1836 152.019C65.5195 151.388 66.874 151.007 68.2471 150.878V151.379C67.1152 151.713 66.0298 152.232 64.9907 152.937C63.9517 153.624 62.9775 154.421 62.0684 155.331C61.1592 156.24 60.3335 157.214 59.5913 158.253C58.8491 159.274 58.209 160.285 57.6709 161.287C57.1328 162.289 56.7246 163.244 56.4463 164.153C56.1494 165.044 56.001 165.796 56.001 166.408C56.001 166.742 56.0566 167.02 56.168 167.243C56.2607 167.465 56.3999 167.577 56.5854 167.577C56.7896 167.577 57.0957 167.41 57.5039 167.076C57.8936 166.742 58.3481 166.296 58.8677 165.74C59.3872 165.165 59.9531 164.515 60.5654 163.792C61.1777 163.049 61.7993 162.279 62.4302 161.482C63.061 160.684 63.6826 159.877 64.2949 159.06C64.9258 158.244 65.5103 157.474 66.0483 156.75C66.8647 155.637 67.542 154.718 68.0801 153.995C68.6182 153.271 69.082 152.696 69.4717 152.269C69.8613 151.824 70.2139 151.518 70.5293 151.351C70.8447 151.184 71.188 151.1 71.5591 151.1C71.9487 151.1 72.2178 151.202 72.3662 151.406C72.5146 151.61 72.5889 151.861 72.5889 152.158C72.5889 152.399 72.5518 152.65 72.4775 152.909C72.4219 153.169 72.3477 153.401 72.2549 153.605C72.1807 153.772 72.0137 154.171 71.7539 154.802C71.5127 155.414 71.2158 156.156 70.8633 157.028C70.5107 157.882 70.1304 158.8 69.7222 159.784C69.3325 160.767 68.9521 161.704 68.5811 162.595C68.2285 163.467 67.9131 164.246 67.6348 164.933C67.3564 165.601 67.1709 166.046 67.0781 166.269ZM80.7437 155.052C80.7993 154.922 80.8271 154.82 80.8271 154.746C80.8271 154.635 80.79 154.561 80.7158 154.524C80.6602 154.468 80.5859 154.44 80.4932 154.44C80.3076 154.44 80.1406 154.542 79.9922 154.746L74.4814 161.565L73.7856 161.008L80.0479 153.271C80.5303 152.677 81.0312 152.158 81.5508 151.713C82.0889 151.249 82.6455 151.017 83.2207 151.017C83.7588 151.017 84.1484 151.165 84.3896 151.462C84.6309 151.74 84.7515 152.056 84.7515 152.408C84.7515 152.761 84.6865 153.16 84.5566 153.605C84.4268 154.05 84.2598 154.514 84.0557 154.997L80.187 164.098C80.0757 164.358 80.02 164.562 80.02 164.71C80.02 164.896 80.0942 164.988 80.2427 164.988C80.4468 164.988 80.6694 164.803 80.9106 164.432L86.7275 155.776C87.3213 154.885 87.8501 154.134 88.314 153.522C88.7964 152.891 89.2417 152.38 89.6499 151.991C90.0767 151.601 90.4756 151.323 90.8467 151.156C91.2363 150.97 91.6353 150.878 92.0435 150.878C92.7485 150.878 93.2866 151.017 93.6577 151.295C94.0288 151.573 94.2144 151.982 94.2144 152.52C94.2144 152.835 94.168 153.169 94.0752 153.522C93.9824 153.856 93.8896 154.152 93.7969 154.412L88.9541 166.269C88.8799 166.454 88.8149 166.64 88.7593 166.825C88.7036 166.992 88.6758 167.141 88.6758 167.271C88.6758 167.493 88.7222 167.642 88.8149 167.716C88.9263 167.79 89.0654 167.827 89.2324 167.827C89.4922 167.827 89.8076 167.697 90.1787 167.438C90.5498 167.178 90.9395 166.797 91.3477 166.296L96.4409 160.006L97.1367 160.563L90.9858 168.161C90.5405 168.718 90.123 169.182 89.7334 169.553C89.3438 169.924 88.9727 170.221 88.6201 170.443C88.2861 170.648 87.9429 170.796 87.5903 170.889C87.2563 170.982 86.9131 171.028 86.5605 171.028C86.0039 171.028 85.54 170.87 85.1689 170.555C84.7979 170.221 84.6123 169.803 84.6123 169.302C84.6123 168.838 84.7236 168.291 84.9463 167.66C85.1689 167.029 85.4751 166.259 85.8647 165.35L90.3735 154.691C90.4292 154.561 90.457 154.421 90.457 154.273C90.457 153.902 90.2808 153.716 89.9282 153.716C89.7798 153.716 89.6128 153.763 89.4272 153.856C89.2603 153.948 89.084 154.134 88.8984 154.412L79.7139 168.05C78.9902 169.126 78.3501 169.896 77.7935 170.36C77.2554 170.805 76.7266 171.028 76.207 171.028C75.3535 171.028 74.9268 170.62 74.9268 169.803C74.9268 169.377 75.0381 168.848 75.2607 168.217C75.4648 167.586 75.7524 166.825 76.1235 165.935L80.7437 155.052ZM113.251 160.869C111.971 162.502 110.793 163.894 109.717 165.044C108.659 166.176 107.685 167.122 106.794 167.883C105.922 168.625 105.134 169.21 104.429 169.636C103.724 170.045 103.093 170.351 102.536 170.555C101.979 170.759 101.488 170.889 101.061 170.944C100.634 170.982 100.263 171 99.9478 171C99.8179 171 99.6045 170.991 99.3076 170.972C99.0107 170.935 98.6675 170.861 98.2778 170.75C97.8882 170.638 97.4893 170.481 97.0811 170.276C96.6729 170.054 96.3018 169.757 95.9678 169.386C95.6338 169.015 95.3555 168.551 95.1328 167.994C94.9102 167.438 94.7988 166.76 94.7988 165.963C94.7988 164.478 95.0679 163.077 95.606 161.76C96.144 160.442 96.8398 159.227 97.6934 158.114C98.5283 157.001 99.4746 156.008 100.532 155.136C101.59 154.245 102.647 153.494 103.705 152.881C104.763 152.269 105.755 151.805 106.683 151.49C107.611 151.156 108.381 150.989 108.993 150.989C109.327 150.989 109.661 151.045 109.995 151.156C110.329 151.249 110.626 151.406 110.886 151.629C111.164 151.852 111.387 152.139 111.554 152.492C111.721 152.844 111.804 153.271 111.804 153.772C111.804 154.088 111.776 154.394 111.721 154.691C111.646 155.062 111.415 155.442 111.025 155.832C110.635 156.203 110.181 156.546 109.661 156.861C109.16 157.158 108.641 157.409 108.103 157.613C107.583 157.798 107.147 157.891 106.794 157.891C107.462 157.019 107.991 156.166 108.381 155.331C108.789 154.477 108.993 153.772 108.993 153.215C108.993 152.881 108.91 152.612 108.743 152.408C108.594 152.186 108.353 152.074 108.019 152.074C107.425 152.074 106.767 152.343 106.043 152.881C105.319 153.401 104.586 154.088 103.844 154.941C103.121 155.795 102.406 156.769 101.701 157.863C100.996 158.958 100.375 160.071 99.8364 161.203C99.2983 162.335 98.8623 163.439 98.5283 164.515C98.1943 165.591 98.0273 166.538 98.0273 167.354C98.0273 167.837 98.083 168.245 98.1943 168.579C98.3057 168.894 98.4727 169.154 98.6953 169.358C98.8994 169.544 99.1406 169.683 99.4189 169.775C99.6973 169.85 100.003 169.887 100.337 169.887C101.005 169.887 101.729 169.738 102.508 169.442C103.306 169.145 104.197 168.634 105.18 167.911C106.182 167.187 107.286 166.213 108.492 164.988C109.698 163.745 111.053 162.187 112.556 160.313L113.251 160.869ZM124.857 166.269C124.783 166.436 124.718 166.612 124.663 166.797C124.607 166.983 124.579 167.141 124.579 167.271C124.579 167.493 124.625 167.642 124.718 167.716C124.83 167.79 124.969 167.827 125.136 167.827C125.396 167.827 125.711 167.697 126.082 167.438C126.453 167.178 126.843 166.797 127.251 166.296L132.344 160.006L133.04 160.563L126.889 168.161C126.444 168.718 126.026 169.182 125.637 169.553C125.247 169.924 124.876 170.221 124.523 170.443C124.189 170.648 123.846 170.796 123.494 170.889C123.16 170.982 122.816 171.028 122.464 171.028C121.907 171.028 121.443 170.87 121.072 170.555C120.701 170.221 120.516 169.803 120.516 169.302C120.516 168.746 120.618 168.171 120.822 167.577C121.044 166.983 121.36 166.241 121.768 165.35C121.917 165.035 122.093 164.627 122.297 164.126C122.52 163.606 122.751 163.068 122.993 162.511C123.234 161.936 123.475 161.361 123.716 160.786C123.958 160.211 124.171 159.691 124.356 159.227C124.542 158.745 124.69 158.346 124.802 158.03C124.932 157.715 124.997 157.529 124.997 157.474C124.997 157.288 124.932 157.195 124.802 157.195C124.635 157.195 124.458 157.335 124.273 157.613C124.162 157.761 123.939 158.077 123.605 158.559C123.271 159.042 122.863 159.617 122.38 160.285C121.898 160.953 121.378 161.676 120.822 162.456C120.265 163.235 119.708 163.996 119.152 164.738C118.595 165.48 118.066 166.157 117.565 166.77C117.064 167.382 116.638 167.864 116.285 168.217C115.395 169.108 114.606 169.813 113.919 170.332C113.233 170.833 112.556 171.084 111.888 171.084C111.665 171.084 111.424 171.037 111.164 170.944C110.886 170.852 110.635 170.694 110.413 170.471C110.171 170.23 109.977 169.905 109.828 169.497C109.68 169.07 109.605 168.532 109.605 167.883C109.605 166.918 109.828 165.851 110.273 164.682C110.7 163.513 111.294 162.326 112.055 161.12C112.815 159.895 113.715 158.698 114.754 157.529C115.793 156.36 116.916 155.312 118.122 154.384C119.347 153.438 120.627 152.65 121.963 152.019C123.299 151.388 124.653 151.007 126.026 150.878V151.379C124.895 151.713 123.809 152.232 122.77 152.937C121.731 153.624 120.757 154.421 119.848 155.331C118.938 156.24 118.113 157.214 117.371 158.253C116.628 159.274 115.988 160.285 115.45 161.287C114.912 162.289 114.504 163.244 114.226 164.153C113.929 165.044 113.78 165.796 113.78 166.408C113.78 166.742 113.836 167.02 113.947 167.243C114.04 167.465 114.179 167.577 114.365 167.577C114.569 167.577 114.875 167.41 115.283 167.076C115.673 166.742 116.127 166.296 116.647 165.74C117.167 165.165 117.732 164.515 118.345 163.792C118.957 163.049 119.579 162.279 120.209 161.482C120.84 160.684 121.462 159.877 122.074 159.06C122.705 158.244 123.29 157.474 123.828 156.75C124.644 155.637 125.321 154.718 125.859 153.995C126.397 153.271 126.861 152.696 127.251 152.269C127.641 151.824 127.993 151.518 128.309 151.351C128.624 151.184 128.967 151.1 129.338 151.1C129.728 151.1 129.997 151.202 130.146 151.406C130.294 151.61 130.368 151.861 130.368 152.158C130.368 152.399 130.331 152.65 130.257 152.909C130.201 153.169 130.127 153.401 130.034 153.605C129.96 153.772 129.793 154.171 129.533 154.802C129.292 155.414 128.995 156.156 128.643 157.028C128.29 157.882 127.91 158.8 127.501 159.784C127.112 160.767 126.731 161.704 126.36 162.595C126.008 163.467 125.692 164.246 125.414 164.933C125.136 165.601 124.95 166.046 124.857 166.269ZM136.436 166.269C136.361 166.454 136.296 166.64 136.241 166.825C136.185 166.992 136.157 167.141 136.157 167.271C136.157 167.493 136.204 167.642 136.296 167.716C136.408 167.79 136.547 167.827 136.714 167.827C136.974 167.827 137.289 167.697 137.66 167.438C138.031 167.178 138.421 166.797 138.829 166.296L143.922 160.006L144.618 160.563L138.467 168.161C138.022 168.718 137.614 169.182 137.243 169.553C136.89 169.924 136.547 170.221 136.213 170.443C135.897 170.648 135.573 170.796 135.239 170.889C134.923 170.982 134.589 171.028 134.237 171.028C133.68 171.028 133.216 170.87 132.845 170.555C132.474 170.221 132.289 169.803 132.289 169.302C132.289 168.838 132.409 168.291 132.65 167.66C132.873 167.029 133.17 166.259 133.541 165.35L138.801 152.798C138.504 153.262 138.161 153.781 137.771 154.357C137.382 154.932 136.909 155.581 136.352 156.305C135.814 157.028 135.202 157.845 134.515 158.754C133.81 159.645 133.003 160.647 132.094 161.76L131.398 161.203C132.678 159.626 133.792 158.216 134.738 156.973C135.684 155.711 136.5 154.579 137.187 153.577C137.874 152.575 138.458 151.675 138.94 150.878C139.423 150.08 139.85 149.328 140.221 148.623C140.592 147.918 140.926 147.25 141.223 146.619C141.538 145.97 141.872 145.302 142.225 144.615L145.397 137.073H148.737L136.436 166.269ZM155.974 166.269C155.899 166.436 155.834 166.612 155.779 166.797C155.723 166.983 155.695 167.141 155.695 167.271C155.695 167.493 155.742 167.642 155.834 167.716C155.946 167.79 156.085 167.827 156.252 167.827C156.512 167.827 156.827 167.697 157.198 167.438C157.569 167.178 157.959 166.797 158.367 166.296L163.46 160.006L164.156 160.563L158.005 168.161C157.56 168.718 157.143 169.182 156.753 169.553C156.363 169.924 155.992 170.221 155.64 170.443C155.306 170.648 154.962 170.796 154.61 170.889C154.276 170.982 153.933 171.028 153.58 171.028C153.023 171.028 152.56 170.87 152.188 170.555C151.817 170.221 151.632 169.803 151.632 169.302C151.632 168.746 151.734 168.171 151.938 167.577C152.161 166.983 152.476 166.241 152.884 165.35C153.033 165.035 153.209 164.627 153.413 164.126C153.636 163.606 153.868 163.068 154.109 162.511C154.35 161.936 154.591 161.361 154.833 160.786C155.074 160.211 155.287 159.691 155.473 159.227C155.658 158.745 155.807 158.346 155.918 158.03C156.048 157.715 156.113 157.529 156.113 157.474C156.113 157.288 156.048 157.195 155.918 157.195C155.751 157.195 155.575 157.335 155.389 157.613C155.278 157.761 155.055 158.077 154.721 158.559C154.387 159.042 153.979 159.617 153.497 160.285C153.014 160.953 152.495 161.676 151.938 162.456C151.381 163.235 150.825 163.996 150.268 164.738C149.711 165.48 149.183 166.157 148.682 166.77C148.181 167.382 147.754 167.864 147.401 168.217C146.511 169.108 145.722 169.813 145.036 170.332C144.349 170.833 143.672 171.084 143.004 171.084C142.781 171.084 142.54 171.037 142.28 170.944C142.002 170.852 141.751 170.694 141.529 170.471C141.288 170.23 141.093 169.905 140.944 169.497C140.796 169.07 140.722 168.532 140.722 167.883C140.722 166.918 140.944 165.851 141.39 164.682C141.816 163.513 142.41 162.326 143.171 161.12C143.932 159.895 144.832 158.698 145.871 157.529C146.91 156.36 148.032 155.312 149.238 154.384C150.463 153.438 151.743 152.65 153.079 152.019C154.415 151.388 155.77 151.007 157.143 150.878V151.379C156.011 151.713 154.925 152.232 153.886 152.937C152.847 153.624 151.873 154.421 150.964 155.331C150.055 156.24 149.229 157.214 148.487 158.253C147.745 159.274 147.104 160.285 146.566 161.287C146.028 162.289 145.62 163.244 145.342 164.153C145.045 165.044 144.896 165.796 144.896 166.408C144.896 166.742 144.952 167.02 145.063 167.243C145.156 167.465 145.295 167.577 145.481 167.577C145.685 167.577 145.991 167.41 146.399 167.076C146.789 166.742 147.244 166.296 147.763 165.74C148.283 165.165 148.849 164.515 149.461 163.792C150.073 163.049 150.695 162.279 151.326 161.482C151.957 160.684 152.578 159.877 153.19 159.06C153.821 158.244 154.406 157.474 154.944 156.75C155.76 155.637 156.438 154.718 156.976 153.995C157.514 153.271 157.978 152.696 158.367 152.269C158.757 151.824 159.109 151.518 159.425 151.351C159.74 151.184 160.083 151.1 160.455 151.1C160.844 151.1 161.113 151.202 161.262 151.406C161.41 151.61 161.484 151.861 161.484 152.158C161.484 152.399 161.447 152.65 161.373 152.909C161.317 153.169 161.243 153.401 161.15 153.605C161.076 153.772 160.909 154.171 160.649 154.802C160.408 155.414 160.111 156.156 159.759 157.028C159.406 157.882 159.026 158.8 158.618 159.784C158.228 160.767 157.848 161.704 157.477 162.595C157.124 163.467 156.809 164.246 156.53 164.933C156.252 165.601 156.066 166.046 155.974 166.269Z" fill="#69B568"/>
<path d="M1.784 125.974C7.01542 104.222 22.0941 41.5945 24.3996 32.8015C27.197 22.1326 37.361 3.99533 55.6374 16.7981C55.6374 29.6009 43.6707 107.831 55.6374 133.395L80.9695 32.8015C84.4921 22.1326 95.6403 3.99533 112.052 16.7981C112.052 39.4108 99.1526 99.5172 112.052 133.395L137.384 32.8015C141.528 22.1326 152.707 3.99533 168 16.7981C159.173 12.1425 153.132 25.5272 150.283 32.8015L127.573 121.351C125.756 128.439 119.368 133.395 112.052 133.395C99.1526 99.5172 112.052 39.4108 112.052 16.7981C102.851 10.1473 96.5624 24.6959 93.8686 32.8015L71.6866 120.886C69.8346 128.24 63.2211 133.395 55.6374 133.395C43.6707 107.831 55.6374 29.6009 55.6374 16.7981C45.691 10.1473 38.9565 24.6959 36.8326 32.8015L13.5544 128.771C12.8963 131.484 10.467 133.395 7.67518 133.395C3.76238 133.395 0.869056 129.778 1.784 125.974Z" fill="#69B568"/>
<path d="M55.6374 16.7981C37.361 3.99533 27.197 22.1326 24.3996 32.8015C22.0941 41.5945 7.01542 104.222 1.784 125.974C0.869056 129.778 3.76238 133.395 7.67518 133.395V133.395C10.467 133.395 12.8963 131.484 13.5544 128.771L36.8326 32.8015C38.9565 24.6959 45.691 10.1473 55.6374 16.7981ZM55.6374 16.7981C55.6374 29.6009 43.6707 107.831 55.6374 133.395M55.6374 133.395L80.9695 32.8015C84.4921 22.1326 95.6403 3.99533 112.052 16.7981M55.6374 133.395V133.395C63.2211 133.395 69.8346 128.24 71.6866 120.886L93.8686 32.8015C96.5624 24.6959 102.851 10.1473 112.052 16.7981M112.052 16.7981C112.052 39.4108 99.1526 99.5172 112.052 133.395M112.052 133.395L137.384 32.8015C141.528 22.1326 152.707 3.99533 168 16.7981M112.052 133.395V133.395C119.368 133.395 125.756 128.439 127.573 121.351L150.283 32.8015C153.132 25.5272 159.173 12.1425 168 16.7981M168 16.7981C168 37.2493 156.033 100.141 168 133.395" stroke="#69B568"/>
<path d="M179.707 10.5043C176.506 8.84517 171.254 11.746 170.954 15.339C174.155 16.9981 179.407 14.0973 179.707 10.5043Z" fill="#69B568" stroke="#69B568"/>
<path d="M178.858 23.4392C178.856 19.8336 173.862 16.5085 170.534 17.8973C170.536 21.5028 175.531 24.828 178.858 23.4392Z" fill="#69B568" stroke="#69B568"/>
<path d="M168.282 4.29021C171.333 6.21213 171.488 12.2101 168.54 14.2869C165.49 12.365 165.335 6.36697 168.282 4.29021Z" fill="#69B568" stroke="#69B568"/>
</svg>
